<svg width="7504" height="3954" viewBox="0 0 7504 3954" fill="none" xmlns="http://www.w3.org/2000/svg">
<g clip-path="url(#clip0_10_79)">
<g filter="url(#filter0_f_10_79)">
<mask id="mask0_10_79" style="mask-type:luminance" maskUnits="userSpaceOnUse" x="4537" y="690" width="2235" height="1748">
<path d="M4537.71 690.5H6771.26V2437.65H4537.71V690.5Z" fill="white"/>
</mask>
<g mask="url(#mask0_10_79)">
<mask id="mask1_10_79" style="mask-type:luminance" maskUnits="userSpaceOnUse" x="4538" y="695" width="2233" height="1742">
<path d="M6265.5 940.283C6246.57 940.283 6228.58 941.237 6210.6 943.123C6079.95 958.278 5948.36 924.196 5846.1 841.896C5772.25 783.228 5678.52 747.26 5576.29 747.26C5513.8 747.26 5453.2 760.507 5399.23 785.114C5338.65 812.562 5267.64 805.928 5212.72 769.027C5136.98 717.947 5045.16 690.5 4946.7 696.18C4725.15 709.427 4538.64 890.136 4538.64 1111.54C4538.64 1368.91 4704.34 1479.61 4831.2 1526.92C4907.89 1555.3 4954.27 1634.78 4942.91 1716.15C4935.34 1771.98 4929.66 1831.6 4932.5 1877.95C4949.54 2177.9 5193.79 2420.12 5494.85 2435.25C5756.16 2448.5 5981.49 2292.38 6074.27 2068.13C6106.46 1990.54 6183.15 1941.35 6267.41 1942.3C6268.34 1942.3 6268.34 1942.3 6269.3 1942.3C6546.7 1942.3 6771.07 1718.06 6770.12 1440.82C6768.23 1165.48 6541.02 939.35 6265.5 940.283Z" fill="white"/>
</mask>
<g mask="url(#mask1_10_79)">
<path d="M4538.64 690.5V2448.5H6771.07V690.5H4538.64Z" fill="#022C3B"/>
</g>
</g>
</g>
<g filter="url(#filter1_f_10_79)">
<mask id="mask2_10_79" style="mask-type:luminance" maskUnits="userSpaceOnUse" x="614" y="1468" width="2540" height="1731">
<path d="M614 1468H3153.55V3198.87H614V1468Z" fill="white"/>
</mask>
<g mask="url(#mask2_10_79)">
<mask id="mask3_10_79" style="mask-type:luminance" maskUnits="userSpaceOnUse" x="616" y="1471" width="2538" height="1726">
<path d="M3151.81 1867.48C3134.28 1653.92 2957.97 1483.71 2744.54 1472.34C2579.56 1463.06 2433.13 1546.63 2352.71 1675.61C2312.5 1739.57 2233.1 1766.38 2160.92 1742.67C2105.26 1724.08 2044.43 1713.78 1982.55 1713.78C1801.09 1713.78 1639.21 1798.37 1534.03 1931.45C1473.19 2008.83 1374.2 2043.91 1277.27 2028.44C1235 2021.21 1190.66 2019.16 1146.34 2022.25C858.654 2041.86 629.749 2278.09 617.37 2565.94C602.935 2892.98 863.804 3162.27 1187.56 3162.27C1321.61 3162.27 1444.32 3115.83 1541.23 3039.48C1639.21 2962.12 1777.37 2966.23 1870.17 3049.81C1978.42 3146.79 2123.81 3203.53 2282.59 3195.27C2574.41 3179.79 2810.52 2940.44 2821.86 2648.48C2822.9 2614.44 2821.86 2582.46 2817.75 2549.43C2803.31 2439.05 2852.81 2331.76 2947.66 2272.94C3080.67 2191.45 3166.25 2038.76 3151.81 1867.48Z" fill="white"/>
</mask>
<g mask="url(#mask3_10_79)">
<path d="M602.935 1463.06V3203.53H3166.25V1463.06H602.935Z" fill="#022C3B"/>
</g>
</g>
</g>
</g>
<defs>
<filter id="filter0_f_10_79" x="3738.64" y="-104.557" width="3831.48" height="3340.59" filterUnits="userSpaceOnUse" color-interpolation-filters="sRGB">
<feFlood flood-opacity="0" result="BackgroundImageFix"/>
<feBlend mode="normal" in="SourceGraphic" in2="BackgroundImageFix" result="shape"/>
<feGaussianBlur stdDeviation="400" result="effect1_foregroundBlur_10_79"/>
</filter>
<filter id="filter1_f_10_79" x="-183.201" y="671.643" width="4136.6" height="3324.42" filterUnits="userSpaceOnUse" color-interpolation-filters="sRGB">
<feFlood flood-opacity="0" result="BackgroundImageFix"/>
<feBlend mode="normal" in="SourceGraphic" in2="BackgroundImageFix" result="shape"/>
<feGaussianBlur stdDeviation="400" result="effect1_foregroundBlur_10_79"/>
</filter>
<clipPath id="clip0_10_79">
<rect width="7504" height="3954" fill="white"/>
</clipPath>
</defs>
</svg>
