<svg width="1144" height="1141" viewBox="0 0 1144 1141" fill="none" xmlns="http://www.w3.org/2000/svg">
<g filter="url(#filter0_f_4_12)">
<path d="M198.557 514.517H208.564C212.756 525.772 214.606 533.119 223.805 533.119C236.651 533.119 249.8 524.252 260.522 514.517C282.499 494.56 303.984 473.388 326.335 454.117C339.895 442.425 353.432 430.843 369.44 429.888C384.027 429.018 400.849 427.172 414.855 434.137C445.849 449.548 463.066 515.152 455.036 559.644C451.161 581.111 435.824 591.49 423.014 598.801C408.549 607.057 394.312 613.104 380.679 624.522C358.135 643.402 335.747 681.578 342.345 722.356C349.071 763.923 370.089 797.154 381.14 836.036C393.633 879.99 376.24 927.865 354.045 957.295C339.83 976.146 324.641 989.446 306.706 999.207L306.337 999.408C287.157 1009.85 266.902 1020.87 246.743 1025.96C211.95 1034.75 168.025 1034.61 137.902 1004.37C125.274 991.698 111.587 972.536 110.345 948.453C109.26 927.424 110.641 907.142 115.81 887.479C121.749 864.888 130.202 844.091 135.9 821.338C139.674 806.272 137.985 788.24 136.521 772.608L136.439 771.732C134.496 750.954 125.674 732.626 121.275 712.94C116.879 693.267 116.136 672.905 118.504 652.54C123.272 611.536 135.425 560.28 159.454 536.104C172.382 523.098 182.696 514.517 198.557 514.517Z" fill="#022C3B"/>
</g>
<g filter="url(#filter1_f_4_12)">
<path d="M747.286 202.527C761.606 190.967 779.212 193.746 795.327 195.126C803.28 218.29 809.103 228.601 825.176 228.601C835.736 228.601 844.864 227.741 852.994 212.133C868.955 181.488 880.622 143.228 902.448 127.202C929.855 107.079 961.726 103.283 989.302 122.933C1013.35 140.068 1026.9 194.953 1032.27 241.104C1034.8 262.873 1033.81 286.038 1033.81 308.195C1033.81 330.721 1034.51 353.801 1033.04 376.2C1031.63 397.703 1026.87 409.746 1015.57 409.746H966.97C952.088 409.746 935.802 406.179 921.457 415.845C888.365 438.143 886.924 531.431 872.157 582.657C863.816 611.596 854.665 638.208 839.085 653.407C823.895 668.225 803.012 678.197 786.231 678.719C756.673 679.637 717.192 677.321 698.913 623.216C692.6 604.529 695.822 571.848 695.822 550.331C695.822 528.836 697.919 510.152 700.691 489.492C706.19 448.499 708.34 409.746 708.34 367.357C708.34 334.106 707.331 287.8 716.686 258.792C725.23 232.296 731.612 215.179 747.286 202.527Z" fill="#022C3B"/>
</g>
<defs>
<filter id="filter0_f_4_12" x="0" y="319" width="567" height="822" filterUnits="userSpaceOnUse" color-interpolation-filters="sRGB">
<feFlood flood-opacity="0" result="BackgroundImageFix"/>
<feBlend mode="normal" in="SourceGraphic" in2="BackgroundImageFix" result="shape"/>
<feGaussianBlur stdDeviation="55" result="effect1_foregroundBlur_4_12"/>
</filter>
<filter id="filter1_f_4_12" x="585" y="0" width="559" height="788.853" filterUnits="userSpaceOnUse" color-interpolation-filters="sRGB">
<feFlood flood-opacity="0" result="BackgroundImageFix"/>
<feBlend mode="normal" in="SourceGraphic" in2="BackgroundImageFix" result="shape"/>
<feGaussianBlur stdDeviation="55" result="effect1_foregroundBlur_4_12"/>
</filter>
</defs>
</svg>
